<svg width="134" height="34" viewBox="0 0 134 34" fill="none" xmlns="http://www.w3.org/2000/svg">
<g id="Pope Ashiedu..." filter="url(#filter0_d)">
<path d="M11.2344 17.2344C11.1484 17.8438 11.0234 18.3633 10.8594 18.793C10.6953 19.2148 10.4961 19.5625 10.2617 19.8359C10.0273 20.1016 9.75781 20.293 9.45312 20.4102C9.15625 20.5352 8.82812 20.5977 8.46875 20.5977C7.96094 20.5977 7.48438 20.4492 7.03906 20.1523C6.60156 19.8555 6.22266 19.4141 5.90234 18.8281C5.58203 18.2422 5.32812 17.5156 5.14062 16.6484C4.96094 15.7812 4.87109 14.7773 4.87109 13.6367C4.87109 12.4414 4.98438 11.2812 5.21094 10.1562C5.44531 9.03125 5.77344 7.97656 6.19531 6.99219C6.625 6.00781 7.13672 5.10938 7.73047 4.29688C8.33203 3.47656 9 2.77734 9.73438 2.19922C10.4766 1.61328 11.2773 1.16016 12.1367 0.839844C12.9961 0.511719 13.8945 0.347656 14.832 0.347656C15.6367 0.347656 16.3711 0.46875 17.0352 0.710938C17.6992 0.953125 18.2695 1.28906 18.7461 1.71875C19.2227 2.14844 19.5898 2.65625 19.8477 3.24219C20.1055 3.82812 20.2344 4.46094 20.2344 5.14062C20.2344 5.96094 20.1211 6.72656 19.8945 7.4375C19.668 8.14062 19.3516 8.78516 18.9453 9.37109C18.5469 9.95703 18.0703 10.4805 17.5156 10.9414C16.9609 11.4023 16.3555 11.793 15.6992 12.1133C15.0508 12.4336 14.3633 12.6836 13.6367 12.8633C12.918 13.0352 12.1875 13.1328 11.4453 13.1562C11.4219 14.1328 11.3945 14.957 11.3633 15.6289C11.3398 16.293 11.2969 16.8281 11.2344 17.2344ZM9.19531 12.3242C9.23438 12.3398 9.28125 12.3555 9.33594 12.3711C9.38281 12.3867 9.4375 12.4023 9.5 12.418C9.57031 12.4336 9.65234 12.4492 9.74609 12.4648C9.73047 11.4883 9.71094 10.5938 9.6875 9.78125C9.67188 8.96094 9.65234 8.24609 9.62891 7.63672C9.59766 6.92578 9.57031 6.28516 9.54688 5.71484C9.60156 5.66797 9.66406 5.62891 9.73438 5.59766C9.79688 5.56641 9.87109 5.53906 9.95703 5.51562C10.043 5.49219 10.1484 5.48047 10.2734 5.48047C10.6328 5.48047 10.9219 5.54688 11.1406 5.67969C11.3594 5.80469 11.4688 6.01953 11.4688 6.32422C11.4688 7.61328 11.4688 8.76953 11.4688 9.79297C11.4688 10.8164 11.4609 11.7383 11.4453 12.5586C12.4688 12.5586 13.3945 12.3633 14.2227 11.9727C15.0586 11.582 15.7695 11.0625 16.3555 10.4141C16.9414 9.75781 17.3945 9.00391 17.7148 8.15234C18.0352 7.30078 18.1953 6.41016 18.1953 5.48047C18.1953 4.88672 18.1133 4.32422 17.9492 3.79297C17.793 3.25391 17.5508 2.78516 17.2227 2.38672C16.8945 1.98047 16.4805 1.66016 15.9805 1.42578C15.4883 1.18359 14.9062 1.0625 14.2344 1.0625C13.5547 1.0625 12.8828 1.19141 12.2188 1.44922C11.5625 1.70703 10.9336 2.09375 10.332 2.60938C9.73828 3.125 9.1875 3.76562 8.67969 4.53125C8.17969 5.29688 7.74219 6.19141 7.36719 7.21484C7 8.23828 6.71094 9.38672 6.5 10.6602C6.29688 11.9258 6.19531 13.3203 6.19531 14.8438C6.19531 15.5 6.22656 16.1406 6.28906 16.7656C6.35938 17.3828 6.47266 17.9336 6.62891 18.418C6.78516 18.8945 6.99219 19.2773 7.25 19.5664C7.51562 19.8555 7.84375 20 8.23438 20C8.44531 20 8.64453 19.957 8.83203 19.8711C9.01953 19.7852 9.18359 19.6094 9.32422 19.3438C9.46484 19.0703 9.57812 18.6836 9.66406 18.1836C9.75 17.6758 9.79297 17 9.79297 16.1562C9.79297 15.625 9.78906 15.1016 9.78125 14.5859C9.77344 14.0625 9.76953 13.5547 9.76953 13.0625C9.65234 13.0469 9.55078 13.0273 9.46484 13.0039C9.37891 12.9805 9.30469 12.9609 9.24219 12.9453C9.17188 12.9219 9.11328 12.8984 9.06641 12.875L9.19531 12.3242ZM29.0938 15.0781L28.9648 15.3242C28.6992 15.8555 28.3438 16.2812 27.8984 16.6016C27.4609 16.9141 26.9844 17.1172 26.4688 17.2109C26.3281 17.6094 26.1445 17.9805 25.918 18.3242C25.6992 18.6602 25.4453 18.9531 25.1562 19.2031C24.875 19.4531 24.5547 19.6484 24.1953 19.7891C23.8438 19.9297 23.4609 20 23.0469 20C22.4453 20 21.9023 19.875 21.418 19.625C20.9414 19.3672 20.5352 19.0234 20.1992 18.5938C19.8633 18.1562 19.6055 17.6484 19.4258 17.0703C19.2461 16.4844 19.1562 15.8594 19.1562 15.1953C19.1562 14.6172 19.2227 14.0938 19.3555 13.625C19.4883 13.1484 19.6562 12.7266 19.8594 12.3594C20.0625 11.9844 20.2891 11.6602 20.5391 11.3867C20.7891 11.1055 21.0352 10.875 21.2773 10.6953C21.5195 10.5156 21.7383 10.3828 21.9336 10.2969C22.1367 10.2031 22.2891 10.1562 22.3906 10.1562L22.543 10.5664C22.2227 10.8008 21.9375 11.1289 21.6875 11.5508C21.4688 11.9102 21.2695 12.3867 21.0898 12.9805C20.918 13.5742 20.832 14.3125 20.832 15.1953C20.832 15.7344 20.8828 16.2578 20.9844 16.7656C21.0859 17.2734 21.2344 17.7227 21.4297 18.1133C21.625 18.5039 21.8633 18.8164 22.1445 19.0508C22.4336 19.2852 22.7578 19.4023 23.1172 19.4023C23.6094 19.4023 24.0156 19.207 24.3359 18.8164C24.6641 18.418 24.9062 17.875 25.0625 17.1875C24.6562 17.1016 24.2695 16.9414 23.9023 16.707C23.5352 16.4727 23.2109 16.1836 22.9297 15.8398C22.6484 15.4883 22.4219 15.0859 22.25 14.6328C22.0859 14.1797 22.0039 13.6875 22.0039 13.1562C22.0039 12.7188 22.0586 12.3359 22.168 12.0078C22.2852 11.6719 22.4375 11.3945 22.625 11.1758C22.8125 10.9492 23.0273 10.7812 23.2695 10.6719C23.5195 10.5547 23.7812 10.4961 24.0547 10.4961C24.375 10.4961 24.7031 10.5898 25.0391 10.7773C25.375 10.957 25.6797 11.2305 25.9531 11.5977C26.2266 11.957 26.4492 12.4102 26.6211 12.957C26.793 13.5039 26.8789 14.1406 26.8789 14.8672C26.8789 15.1406 26.8633 15.4102 26.832 15.6758C26.8008 15.9414 26.7539 16.1992 26.6914 16.4492C27.0664 16.3398 27.4062 16.1641 27.7109 15.9219C28.0234 15.6797 28.2812 15.3594 28.4844 14.9609L28.6133 14.7148L29.0938 15.0781ZM22.7773 13.0625C22.7773 13.5234 22.8398 13.9492 22.9648 14.3398C23.0977 14.7227 23.2734 15.0625 23.4922 15.3594C23.7109 15.6484 23.9648 15.8906 24.2539 16.0859C24.543 16.2812 24.8516 16.418 25.1797 16.4961C25.2188 16.2773 25.2422 16.0508 25.25 15.8164C25.2656 15.5742 25.2734 15.3281 25.2734 15.0781C25.2734 14.5234 25.2305 14.0234 25.1445 13.5781C25.0586 13.125 24.9453 12.7422 24.8047 12.4297C24.6641 12.1094 24.5 11.8633 24.3125 11.6914C24.125 11.5195 23.9336 11.4336 23.7383 11.4336C23.4727 11.4336 23.2461 11.5781 23.0586 11.8672C22.8711 12.1484 22.7773 12.5469 22.7773 13.0625ZM30.1602 12.6055C30.293 12.3164 30.4531 12.0391 30.6406 11.7734C30.8281 11.5078 31.043 11.2734 31.2852 11.0703C31.5273 10.8672 31.7969 10.707 32.0938 10.5898C32.3906 10.4648 32.7148 10.4023 33.0664 10.4023C33.5352 10.4023 33.9492 10.5156 34.3086 10.7422C34.668 10.9609 34.9688 11.2578 35.2109 11.6328C35.4531 12 35.6367 12.4297 35.7617 12.9219C35.8867 13.4062 35.9492 13.9102 35.9492 14.4336C35.9492 15.2383 35.8672 15.9648 35.7031 16.6133C35.5469 17.2539 35.332 17.8164 35.0586 18.3008C35.4805 17.9805 35.9062 17.5547 36.3359 17.0234C36.7734 16.4922 37.2031 15.8047 37.625 14.9609L37.7422 14.7148L38.2227 15.0781L38.1055 15.3242C37.7461 16.043 37.3516 16.6914 36.9219 17.2695C36.4922 17.8477 36.0352 18.3398 35.5508 18.7461C35.0742 19.1445 34.5742 19.4531 34.0508 19.6719C33.5273 19.8906 32.9922 20 32.4453 20C31.9609 20 31.5117 19.8945 31.0977 19.6836C30.6914 19.4727 30.3789 19.2109 30.1602 18.8984V24.4414C30.1602 24.7383 30.1367 24.9844 30.0898 25.1797C30.0508 25.3828 29.9805 25.543 29.8789 25.6602C29.7852 25.7852 29.6562 25.8711 29.4922 25.918C29.3281 25.9727 29.1289 26 28.8945 26C28.7148 26 28.5898 25.9688 28.5195 25.9062C28.4492 25.8516 28.4141 25.7617 28.4141 25.6367C28.4141 25.582 28.4219 25.4844 28.4375 25.3438C28.4531 25.2031 28.4688 24.9883 28.4844 24.6992C28.5 24.418 28.5156 24.043 28.5312 23.5742C28.5469 23.1133 28.5547 22.5234 28.5547 21.8047V15.3242C28.5547 14.457 28.5508 13.7656 28.543 13.25C28.5352 12.7266 28.5273 12.3203 28.5195 12.0312C28.5117 11.7344 28.5039 11.5234 28.4961 11.3984C28.4883 11.2734 28.4844 11.1641 28.4844 11.0703C28.4844 10.9922 28.5234 10.9141 28.6016 10.8359C28.6797 10.7578 28.7812 10.6875 28.9062 10.625C29.0312 10.5625 29.1641 10.5117 29.3047 10.4727C29.4531 10.4258 29.5938 10.4023 29.7266 10.4023C29.8594 10.4023 29.9648 10.4375 30.043 10.5078C30.1211 10.5781 30.1602 10.7031 30.1602 10.8828V12.6055ZM32.4453 11.4336C32.1172 11.4336 31.8125 11.5469 31.5312 11.7734C31.2578 12 31.0195 12.293 30.8164 12.6523C30.6211 13.0039 30.4648 13.3945 30.3477 13.8242C30.2383 14.2539 30.1836 14.6719 30.1836 15.0781V16.4258C30.1836 16.8477 30.2383 17.2305 30.3477 17.5742C30.4648 17.918 30.6172 18.2109 30.8047 18.4531C30.9922 18.6953 31.2109 18.8828 31.4609 19.0156C31.7188 19.1406 31.9883 19.2031 32.2695 19.2031C32.9336 19.2031 33.4336 18.8594 33.7695 18.1719C34.1133 17.4844 34.2852 16.4062 34.2852 14.9375C34.2852 14.4375 34.25 13.9727 34.1797 13.543C34.1094 13.1133 34 12.7422 33.8516 12.4297C33.7031 12.1172 33.5117 11.875 33.2773 11.7031C33.043 11.5234 32.7656 11.4336 32.4453 11.4336ZM41.1992 18.6758C41.4727 18.6758 41.75 18.6055 42.0312 18.4648C42.3203 18.3242 42.6094 18.1055 42.8984 17.8086C43.1953 17.5117 43.5 17.1289 43.8125 16.6602C44.125 16.1836 44.4453 15.6172 44.7734 14.9609L44.8906 14.7148L45.3711 15.0781L45.2539 15.3242C44.832 16.1602 44.4102 16.875 43.9883 17.4688C43.5742 18.0625 43.1641 18.5469 42.7578 18.9219C42.3594 19.2969 41.9648 19.5703 41.5742 19.7422C41.1836 19.9141 40.8086 20 40.4492 20C39.9414 20 39.4883 19.8945 39.0898 19.6836C38.6914 19.4727 38.3555 19.1875 38.082 18.8281C37.8086 18.4609 37.6016 18.0391 37.4609 17.5625C37.3125 17.0781 37.2383 16.5703 37.2383 16.0391C37.2383 15.1953 37.3555 14.4297 37.5898 13.7422C37.8164 13.0469 38.1211 12.4531 38.5039 11.9609C38.8945 11.4688 39.3359 11.0859 39.8281 10.8125C40.3203 10.5391 40.832 10.4023 41.3633 10.4023C41.9023 10.4023 42.3125 10.5391 42.5938 10.8125C42.8828 11.0859 43.0273 11.4297 43.0273 11.8438C43.0273 12.2422 42.9141 12.6172 42.6875 12.9688C42.4609 13.3125 42.1523 13.6523 41.7617 13.9883C41.3789 14.3164 40.9336 14.6445 40.4258 14.9727C39.918 15.293 39.3828 15.625 38.8203 15.9688C38.875 16.375 38.9688 16.7461 39.1016 17.082C39.2344 17.4102 39.4023 17.6953 39.6055 17.9375C39.8086 18.1719 40.043 18.3555 40.3086 18.4883C40.5742 18.6133 40.8711 18.6758 41.1992 18.6758ZM41.5625 12.1953C41.5625 11.8828 41.4766 11.6367 41.3047 11.457C41.1406 11.2773 40.9375 11.1875 40.6953 11.1875C40.4922 11.1875 40.2773 11.2617 40.0508 11.4102C39.8242 11.5508 39.6172 11.7812 39.4297 12.1016C39.2422 12.4141 39.0859 12.8164 38.9609 13.3086C38.8359 13.8008 38.7734 14.3984 38.7734 15.1016V15.3711C39.0391 15.2305 39.332 15.0469 39.6523 14.8203C39.9805 14.5859 40.2852 14.3281 40.5664 14.0469C40.8477 13.7656 41.082 13.4688 41.2695 13.1562C41.4648 12.8359 41.5625 12.5156 41.5625 12.1953ZM61.7773 15.8047C61.7773 16.4922 61.793 17.0352 61.8242 17.4336C61.8633 17.832 61.918 18.1328 61.9883 18.3359C62.0664 18.5391 62.1641 18.668 62.2812 18.7227C62.3984 18.7773 62.5352 18.8047 62.6914 18.8047C62.9023 18.8047 63.1211 18.7383 63.3477 18.6055C63.5742 18.4727 63.7969 18.3008 64.0156 18.0898C64.2344 17.8789 64.4414 17.6445 64.6367 17.3867C64.8398 17.1289 65.0234 16.8789 65.1875 16.6367C65.3594 16.3867 65.5039 16.1562 65.6211 15.9453C65.7461 15.7266 65.8398 15.5586 65.9023 15.4414L66.2656 14.7148L66.7461 15.0781L66.3828 15.8047C66.3203 15.9219 66.2188 16.1133 66.0781 16.3789C65.9375 16.6367 65.7617 16.9258 65.5508 17.2461C65.3398 17.5586 65.1016 17.8867 64.8359 18.2305C64.5703 18.5664 64.2852 18.875 63.9805 19.1562C63.6758 19.4375 63.3555 19.668 63.0195 19.8477C62.6836 20.0273 62.3398 20.1172 61.9883 20.1172C61.668 20.1172 61.3828 20.0625 61.1328 19.9531C60.8828 19.8438 60.6719 19.6523 60.5 19.3789C60.3281 19.0977 60.1953 18.7188 60.1016 18.2422C60.0156 17.7578 59.9727 17.1445 59.9727 16.4023C59.9727 16.1133 59.9766 15.8398 59.9844 15.582C60 15.3164 60.0195 14.9961 60.043 14.6211C59.6445 15.3945 59.1836 16.1406 58.6602 16.8594C58.1445 17.5781 57.5898 18.2148 56.9961 18.7695C56.4023 19.3242 55.7812 19.7656 55.1328 20.0938C54.4922 20.4297 53.8438 20.5977 53.1875 20.5977C52.7734 20.5977 52.3789 20.5234 52.0039 20.375C51.6289 20.2266 51.2969 20 51.0078 19.6953C50.7188 19.3828 50.4883 18.9844 50.3164 18.5C50.1445 18.0156 50.0586 17.4375 50.0586 16.7656C50.0586 15.6875 50.1797 14.6289 50.4219 13.5898C50.6562 12.5508 50.9844 11.5469 51.4062 10.5781C51.8281 9.60156 52.3242 8.67188 52.8945 7.78906C53.4648 6.89844 54.0781 6.07422 54.7344 5.31641C55.3906 4.55859 56.0781 3.875 56.7969 3.26562C57.5156 2.64844 58.2344 2.12109 58.9531 1.68359C59.6719 1.24609 60.3711 0.910156 61.0508 0.675781C61.7383 0.441406 62.3789 0.324219 62.9727 0.324219C63.6289 0.324219 64.1523 0.492187 64.543 0.828125C64.9336 1.15625 65.1289 1.625 65.1289 2.23438C65.1289 2.64063 65.0469 3.03906 64.8828 3.42969C64.7266 3.8125 64.5156 4.18359 64.25 4.54297C63.9922 4.89453 63.6953 5.23047 63.3594 5.55078C63.0312 5.86328 62.6992 6.14844 62.3633 6.40625C62.0273 6.65625 61.6992 6.87891 61.3789 7.07422C61.0664 7.26172 60.7969 7.41016 60.5703 7.51953L60.2188 7.03906C60.4141 6.9375 60.6367 6.79688 60.8867 6.61719C61.1445 6.4375 61.4023 6.22656 61.6602 5.98438C61.918 5.74219 62.168 5.47656 62.4102 5.1875C62.6602 4.89062 62.8828 4.58203 63.0781 4.26172C63.2734 3.93359 63.4297 3.59766 63.5469 3.25391C63.6641 2.90234 63.7227 2.55469 63.7227 2.21094C63.7227 1.875 63.6328 1.59766 63.4531 1.37891C63.2812 1.15234 63 1.03906 62.6094 1.03906C62.1484 1.03906 61.6484 1.16016 61.1094 1.40234C60.5703 1.63672 60.0156 1.97266 59.4453 2.41016C58.875 2.84766 58.3008 3.37109 57.7227 3.98047C57.1523 4.58203 56.6016 5.25 56.0703 5.98438C55.5391 6.71094 55.043 7.49219 54.582 8.32812C54.1289 9.15625 53.7305 10.0195 53.3867 10.918C53.0508 11.8086 52.7852 12.7188 52.5898 13.6484C52.3945 14.5703 52.2969 15.4883 52.2969 16.4023C52.2969 16.8242 52.3281 17.2148 52.3906 17.5742C52.4531 17.9258 52.5547 18.2305 52.6953 18.4883C52.8359 18.7383 53.0195 18.9336 53.2461 19.0742C53.4727 19.2148 53.7539 19.2852 54.0898 19.2852C54.5117 19.2852 54.9258 19.1914 55.332 19.0039C55.7383 18.8086 56.1328 18.5469 56.5156 18.2188C56.8984 17.8906 57.2656 17.5078 57.6172 17.0703C57.9766 16.6328 58.3125 16.1641 58.625 15.6641C58.9375 15.1641 59.2266 14.6523 59.4922 14.1289C59.7656 13.5977 60.0078 13.0742 60.2188 12.5586C60.2734 11.9727 60.3359 11.4141 60.4062 10.8828C60.4766 10.3438 60.5469 9.86328 60.6172 9.44141C60.6875 9.01953 60.7539 8.67188 60.8164 8.39844C60.8789 8.11719 60.9336 7.94531 60.9805 7.88281C61.0117 7.82812 61.0781 7.76562 61.1797 7.69531C61.2812 7.625 61.3945 7.5625 61.5195 7.50781C61.6523 7.44531 61.7852 7.39453 61.918 7.35547C62.0508 7.30859 62.1641 7.28516 62.2578 7.28516C62.4922 7.28516 62.6094 7.40234 62.6094 7.63672C62.6094 7.85547 62.5938 8.10938 62.5625 8.39844C62.5312 8.6875 62.4883 8.98828 62.4336 9.30078C62.3789 9.61328 62.3125 9.92969 62.2344 10.25C62.1641 10.5625 62.082 10.8516 61.9883 11.1172C61.9258 11.9688 61.875 12.7891 61.8359 13.5781C61.7969 14.3594 61.7773 15.1016 61.7773 15.8047ZM73.1094 15.9219C73.1094 16.4531 73.0273 16.9648 72.8633 17.457C72.707 17.9414 72.4727 18.375 72.1602 18.7578C71.8555 19.1328 71.4727 19.4336 71.0117 19.6602C70.5586 19.8867 70.0391 20 69.4531 20C69.0312 20 68.6523 19.9336 68.3164 19.8008C67.9883 19.6602 67.707 19.4766 67.4727 19.25C67.2383 19.0156 67.0586 18.7539 66.9336 18.4648C66.8086 18.168 66.7461 17.8633 66.7461 17.5508C66.7461 17.2383 66.8047 16.9492 66.9219 16.6836C67.0469 16.4102 67.2109 16.1797 67.4141 15.9922C67.625 15.7969 67.8633 15.6445 68.1289 15.5352C68.3945 15.4258 68.6758 15.3711 68.9727 15.3711C69.1602 15.3711 69.3555 15.3945 69.5586 15.4414V15.7812C69.3086 15.7812 69.0625 15.832 68.8203 15.9336C68.5859 16.0352 68.375 16.1758 68.1875 16.3555C68.0078 16.5273 67.8633 16.7383 67.7539 16.9883C67.6445 17.2305 67.5898 17.4922 67.5898 17.7734C67.5898 18.2891 67.7656 18.7031 68.1172 19.0156C68.4766 19.3203 68.9648 19.4727 69.582 19.4727C69.8945 19.4727 70.1797 19.4141 70.4375 19.2969C70.6953 19.1719 70.9141 19.0039 71.0938 18.793C71.2812 18.5742 71.4219 18.3164 71.5156 18.0195C71.6172 17.7227 71.668 17.3984 71.668 17.0469C71.668 16.7109 71.6016 16.3984 71.4688 16.1094C71.3359 15.8203 71.1602 15.5469 70.9414 15.2891C70.7227 15.0312 70.4727 14.7891 70.1914 14.5625C69.918 14.3359 69.6367 14.1211 69.3477 13.918C69.0664 13.707 68.7891 13.5039 68.5156 13.3086C68.2422 13.1133 68.0039 12.918 67.8008 12.7227L66.6289 15.3242L66.1484 14.9609L67.3438 12.3477C67.0547 12.0742 66.8398 11.8164 66.6992 11.5742C66.5664 11.3242 66.5 11.0273 66.5 10.6836C66.5 10.4961 66.5312 10.3203 66.5938 10.1562C66.6641 9.98438 66.7539 9.83984 66.8633 9.72266C66.9805 9.59766 67.1133 9.5 67.2617 9.42969C67.4102 9.35938 67.5664 9.32422 67.7305 9.32422C68.0273 9.32422 68.25 9.41016 68.3984 9.58203C68.5469 9.74609 68.6211 9.95312 68.6211 10.2031C68.6211 10.3203 68.6094 10.4453 68.5859 10.5781C68.5625 10.7031 68.5312 10.832 68.4922 10.9648C68.4609 11.0898 68.4258 11.207 68.3867 11.3164C68.3555 11.4258 68.3281 11.5195 68.3047 11.5977C68.5391 11.7773 68.8203 11.9531 69.1484 12.125C69.4766 12.2891 69.8164 12.4609 70.168 12.6406C70.5273 12.8203 70.8828 13.0156 71.2344 13.2266C71.5859 13.4375 71.8984 13.6719 72.1719 13.9297C72.4531 14.1875 72.6797 14.4805 72.8516 14.8086C73.0234 15.1367 73.1094 15.5078 73.1094 15.9219ZM67.7539 9.85156C67.6445 9.85156 67.5547 9.89062 67.4844 9.96875C67.4219 10.0391 67.3906 10.1367 67.3906 10.2617C67.3906 10.4023 67.4258 10.5586 67.4961 10.7305C67.5664 10.9023 67.6914 11.0703 67.8711 11.2344C67.9492 11.0703 68.0078 10.9102 68.0469 10.7539C68.0938 10.5977 68.1172 10.4414 68.1172 10.2852C68.1172 10.1602 68.082 10.0586 68.0117 9.98047C67.9492 9.89453 67.8633 9.85156 67.7539 9.85156ZM75.6289 15.9219C75.6289 16.3047 75.6172 16.7109 75.5938 17.1406C75.5703 17.5625 75.5195 17.9883 75.4414 18.418C75.3711 18.8398 75.2656 19.2539 75.125 19.6602C74.9844 20.0586 74.793 20.4297 74.5508 20.7734L73.6602 20.5039C73.8555 19.8477 73.9727 19.1602 74.0117 18.4414C74.0508 17.7227 74.0703 17.0039 74.0703 16.2852C74.0703 15.5039 74.0469 14.7227 74 13.9414C73.9453 13.1602 73.8867 12.3789 73.8242 11.5977C73.7539 10.8086 73.6953 10.0156 73.6484 9.21875C73.5938 8.42188 73.5664 7.61719 73.5664 6.80469C73.5664 6.3125 73.6211 5.88281 73.7305 5.51562C73.832 5.14844 73.9688 4.84375 74.1406 4.60156C74.3125 4.35938 74.5039 4.17969 74.7148 4.0625C74.9258 3.9375 75.1367 3.875 75.3477 3.875C75.6445 3.875 75.8789 3.98047 76.0508 4.19141C76.2305 4.40234 76.3633 4.6875 76.4492 5.04688C76.5352 5.40625 76.5781 5.82422 76.5781 6.30078C76.5859 6.77734 76.5664 7.28125 76.5195 7.8125C76.4727 8.34375 76.4062 8.88672 76.3203 9.44141C76.2344 9.99609 76.1406 10.5352 76.0391 11.0586C75.9375 11.582 75.8359 12.0703 75.7344 12.5234C75.6406 12.9766 75.5586 13.3633 75.4883 13.6836C75.4883 13.7461 75.4922 13.8125 75.5 13.8828C75.5078 13.9453 75.5117 14.0078 75.5117 14.0703C75.6758 13.7031 75.875 13.3086 76.1094 12.8867C76.3516 12.457 76.6211 12.0586 76.918 11.6914C77.2227 11.3242 77.5508 11.0195 77.9023 10.7773C78.2617 10.5273 78.6406 10.4023 79.0391 10.4023C79.625 10.4023 80.0664 10.5977 80.3633 10.9883C80.6602 11.3789 80.8086 11.9414 80.8086 12.6758C80.8086 13.1836 80.7812 13.6719 80.7266 14.1406C80.6719 14.6094 80.6094 15.0625 80.5391 15.5C80.4766 15.9297 80.418 16.3477 80.3633 16.7539C80.3086 17.1602 80.2812 17.5625 80.2812 17.9609C80.2812 18.4375 80.4023 18.6758 80.6445 18.6758C80.7617 18.6758 80.9102 18.5742 81.0898 18.3711C81.2773 18.1602 81.4844 17.8828 81.7109 17.5391C81.9375 17.1953 82.1758 16.8008 82.4258 16.3555C82.6758 15.9102 82.9219 15.4453 83.1641 14.9609L83.2812 14.7148L83.7617 15.0781L83.6445 15.3242C83.3711 15.8633 83.0859 16.4102 82.7891 16.9648C82.4922 17.5195 82.1875 18.0234 81.875 18.4766C81.5625 18.9219 81.2422 19.2891 80.9141 19.5781C80.5938 19.8594 80.2734 20 79.9531 20C79.8125 20 79.668 19.9766 79.5195 19.9297C79.3789 19.8828 79.25 19.8008 79.1328 19.6836C79.0156 19.5664 78.918 19.4102 78.8398 19.2148C78.7617 19.0117 78.7227 18.7539 78.7227 18.4414C78.7227 18.1289 78.7383 17.7891 78.7695 17.4219C78.8008 17.0547 78.8359 16.6797 78.875 16.2969C78.9219 15.9062 78.9727 15.5195 79.0273 15.1367C79.082 14.7539 79.1289 14.3945 79.168 14.0586C79.2148 13.7227 79.2539 13.4219 79.2852 13.1562C79.3164 12.8828 79.332 12.6602 79.332 12.4883C79.332 12.043 79.2695 11.7188 79.1445 11.5156C79.0195 11.3125 78.832 11.2109 78.582 11.2109C78.2695 11.2109 77.9688 11.3477 77.6797 11.6211C77.3906 11.8945 77.1172 12.2383 76.8594 12.6523C76.6094 13.0586 76.3789 13.5 76.168 13.9766C75.957 14.4453 75.7695 14.8789 75.6055 15.2773C75.6055 15.3945 75.6094 15.5117 75.6172 15.6289C75.625 15.7383 75.6289 15.8359 75.6289 15.9219ZM74.8672 5.89062C74.8672 6.21094 74.8789 6.60156 74.9023 7.0625C74.9336 7.51562 74.9688 8.00781 75.0078 8.53906C75.0547 9.07031 75.1016 9.625 75.1484 10.2031C75.2031 10.7812 75.2578 11.3516 75.3125 11.9141C75.3984 11.4766 75.4844 10.9961 75.5703 10.4727C75.6562 9.94141 75.7305 9.41016 75.793 8.87891C75.8633 8.33984 75.9141 7.81641 75.9453 7.30859C75.9844 6.80078 75.9922 6.35156 75.9688 5.96094C75.9531 5.57031 75.9023 5.25781 75.8164 5.02344C75.7305 4.78125 75.6055 4.66016 75.4414 4.66016C75.293 4.66016 75.1602 4.75 75.043 4.92969C74.9258 5.10938 74.8672 5.42969 74.8672 5.89062ZM83.8789 14.8438L83.7617 15.0781L83.6445 15.3242L83.1641 14.9609L83.2812 14.7148C83.4766 14.3164 83.6367 13.918 83.7617 13.5195C83.8945 13.1133 84 12.7344 84.0781 12.3828C84.1641 12.0312 84.2344 11.7227 84.2891 11.457C84.3438 11.1914 84.3984 11 84.4531 10.8828C84.5 10.7891 84.5664 10.7148 84.6523 10.6602C84.7461 10.5977 84.8398 10.5469 84.9336 10.5078C85.0352 10.4688 85.1289 10.4414 85.2148 10.4258C85.3086 10.4102 85.375 10.4023 85.4141 10.4023C85.5859 10.4023 85.6992 10.4375 85.7539 10.5078C85.8164 10.5781 85.8477 10.7031 85.8477 10.8828C85.8477 10.9688 85.8281 11.1836 85.7891 11.5273C85.7578 11.8633 85.7188 12.2891 85.6719 12.8047C85.6328 13.3125 85.5938 13.8867 85.5547 14.5273C85.5234 15.1602 85.5078 15.8164 85.5078 16.4961C85.5078 16.9883 85.5312 17.3789 85.5781 17.668C85.625 17.9492 85.6836 18.1602 85.7539 18.3008C85.832 18.4414 85.9141 18.5312 86 18.5703C86.0938 18.6094 86.1875 18.6289 86.2812 18.6289C86.4062 18.6289 86.5469 18.5742 86.7031 18.4648C86.8594 18.3555 87.043 18.1641 87.2539 17.8906C87.4648 17.6094 87.707 17.2344 87.9805 16.7656C88.2539 16.2891 88.5742 15.6875 88.9414 14.9609L89.0703 14.7148L89.5508 15.0781L89.4219 15.3242C89.125 15.9023 88.8281 16.4727 88.5312 17.0352C88.2422 17.5977 87.9453 18.0977 87.6406 18.5352C87.3438 18.9727 87.043 19.3281 86.7383 19.6016C86.4336 19.8672 86.1289 20 85.8242 20C85.5039 20 85.2266 19.9375 84.9922 19.8125C84.7656 19.6797 84.5742 19.4648 84.418 19.168C84.2695 18.8711 84.1562 18.4805 84.0781 17.9961C84.0078 17.5039 83.9727 16.8984 83.9727 16.1797C83.9727 15.9766 83.9727 15.7656 83.9727 15.5469C83.9727 15.3203 83.9805 15.0859 83.9961 14.8438H83.8789ZM86.2812 8C86.2812 8.27344 86.1875 8.50391 86 8.69141C85.8203 8.87109 85.5938 8.96094 85.3203 8.96094C85.0547 8.96094 84.8281 8.87109 84.6406 8.69141C84.4531 8.50391 84.3594 8.27344 84.3594 8C84.3594 7.73438 84.4531 7.50781 84.6406 7.32031C84.8281 7.13281 85.0547 7.03906 85.3203 7.03906C85.5938 7.03906 85.8203 7.13281 86 7.32031C86.1875 7.50781 86.2812 7.73438 86.2812 8ZM92.5273 18.6758C92.8008 18.6758 93.0781 18.6055 93.3594 18.4648C93.6484 18.3242 93.9375 18.1055 94.2266 17.8086C94.5234 17.5117 94.8281 17.1289 95.1406 16.6602C95.4531 16.1836 95.7734 15.6172 96.1016 14.9609L96.2188 14.7148L96.6992 15.0781L96.582 15.3242C96.1602 16.1602 95.7383 16.875 95.3164 17.4688C94.9023 18.0625 94.4922 18.5469 94.0859 18.9219C93.6875 19.2969 93.293 19.5703 92.9023 19.7422C92.5117 19.9141 92.1367 20 91.7773 20C91.2695 20 90.8164 19.8945 90.418 19.6836C90.0195 19.4727 89.6836 19.1875 89.4102 18.8281C89.1367 18.4609 88.9297 18.0391 88.7891 17.5625C88.6406 17.0781 88.5664 16.5703 88.5664 16.0391C88.5664 15.1953 88.6836 14.4297 88.918 13.7422C89.1445 13.0469 89.4492 12.4531 89.832 11.9609C90.2227 11.4688 90.6641 11.0859 91.1562 10.8125C91.6484 10.5391 92.1602 10.4023 92.6914 10.4023C93.2305 10.4023 93.6406 10.5391 93.9219 10.8125C94.2109 11.0859 94.3555 11.4297 94.3555 11.8438C94.3555 12.2422 94.2422 12.6172 94.0156 12.9688C93.7891 13.3125 93.4805 13.6523 93.0898 13.9883C92.707 14.3164 92.2617 14.6445 91.7539 14.9727C91.2461 15.293 90.7109 15.625 90.1484 15.9688C90.2031 16.375 90.2969 16.7461 90.4297 17.082C90.5625 17.4102 90.7305 17.6953 90.9336 17.9375C91.1367 18.1719 91.3711 18.3555 91.6367 18.4883C91.9023 18.6133 92.1992 18.6758 92.5273 18.6758ZM92.8906 12.1953C92.8906 11.8828 92.8047 11.6367 92.6328 11.457C92.4688 11.2773 92.2656 11.1875 92.0234 11.1875C91.8203 11.1875 91.6055 11.2617 91.3789 11.4102C91.1523 11.5508 90.9453 11.7812 90.7578 12.1016C90.5703 12.4141 90.4141 12.8164 90.2891 13.3086C90.1641 13.8008 90.1016 14.3984 90.1016 15.1016V15.3711C90.3672 15.2305 90.6602 15.0469 90.9805 14.8203C91.3086 14.5859 91.6133 14.3281 91.8945 14.0469C92.1758 13.7656 92.4102 13.4688 92.5977 13.1562C92.793 12.8359 92.8906 12.5156 92.8906 12.1953ZM98.5977 20C98.1211 20 97.707 19.8984 97.3555 19.6953C97.0117 19.4922 96.7266 19.2188 96.5 18.875C96.2734 18.5234 96.1055 18.1211 95.9961 17.668C95.8867 17.2148 95.832 16.7344 95.832 16.2266C95.832 15.7812 95.875 15.3281 95.9609 14.8672C96.0469 14.4062 96.168 13.9609 96.3242 13.5312C96.4883 13.0938 96.6914 12.6875 96.9336 12.3125C97.1758 11.9297 97.4531 11.5977 97.7656 11.3164C98.0781 11.0352 98.4258 10.8125 98.8086 10.6484C99.1992 10.4844 99.6172 10.4023 100.062 10.4023C100.57 10.4023 101 10.5156 101.352 10.7422C101.711 10.9688 102 11.2461 102.219 11.5742C102.227 10.0977 102.301 8.79297 102.441 7.66016C102.582 6.52734 102.777 5.57812 103.027 4.8125C103.285 4.04688 103.59 3.46875 103.941 3.07812C104.293 2.67969 104.68 2.48047 105.102 2.48047C105.25 2.48047 105.383 2.5 105.5 2.53906C105.625 2.57031 105.727 2.63281 105.805 2.72656C105.891 2.82031 105.953 2.94922 105.992 3.11328C106.039 3.26953 106.062 3.47266 106.062 3.72266C106.062 4.23828 106.012 4.83203 105.91 5.50391C105.809 6.16797 105.664 6.89453 105.477 7.68359C105.289 8.46484 105.059 9.30078 104.785 10.1914C104.52 11.0742 104.223 11.9922 103.895 12.9453C103.902 13.7812 103.914 14.5039 103.93 15.1133C103.945 15.7227 103.965 16.2383 103.988 16.6602C104.02 17.082 104.055 17.4258 104.094 17.6914C104.141 17.957 104.191 18.1641 104.246 18.3125C104.309 18.4531 104.379 18.5508 104.457 18.6055C104.543 18.6523 104.637 18.6758 104.738 18.6758C104.918 18.6758 105.098 18.5977 105.277 18.4414C105.465 18.2773 105.664 18.0391 105.875 17.7266C106.086 17.4062 106.312 17.0156 106.555 16.5547C106.805 16.0938 107.078 15.5625 107.375 14.9609L107.504 14.7148L107.984 15.0781L107.855 15.3242C107.402 16.2383 107.004 16.9961 106.66 17.5977C106.316 18.1914 106 18.668 105.711 19.0273C105.43 19.3867 105.16 19.6406 104.902 19.7891C104.645 19.9297 104.375 20 104.094 20C103.82 20 103.582 19.9336 103.379 19.8008C103.184 19.6602 103.016 19.4453 102.875 19.1562C102.734 18.8594 102.621 18.4844 102.535 18.0312C102.449 17.5703 102.383 17.0195 102.336 16.3789C102.062 16.9258 101.781 17.4219 101.492 17.8672C101.203 18.3125 100.902 18.6953 100.59 19.0156C100.285 19.3281 99.9648 19.5703 99.6289 19.7422C99.293 19.9141 98.9492 20 98.5977 20ZM100.297 11C99.8672 11 99.4922 11.1328 99.1719 11.3984C98.8516 11.6562 98.5859 11.9961 98.375 12.418C98.1641 12.832 98.0078 13.3008 97.9062 13.8242C97.8047 14.3477 97.7539 14.8711 97.7539 15.3945C97.7539 15.8242 97.7852 16.2383 97.8477 16.6367C97.918 17.0273 98.0195 17.375 98.1523 17.6797C98.293 17.9844 98.4609 18.2266 98.6562 18.4062C98.8516 18.5859 99.0781 18.6758 99.3359 18.6758C99.5859 18.6758 99.8281 18.6133 100.062 18.4883C100.305 18.3633 100.543 18.1641 100.777 17.8906C101.012 17.6094 101.25 17.25 101.492 16.8125C101.734 16.3672 101.992 15.8281 102.266 15.1953C102.25 14.8203 102.238 14.4219 102.23 14C102.223 13.5703 102.219 13.1133 102.219 12.6289C102.047 12.1211 101.785 11.7227 101.434 11.4336C101.09 11.1445 100.711 11 100.297 11ZM105.219 4.15625C105.219 3.79688 105.176 3.54688 105.09 3.40625C105.012 3.26562 104.918 3.19531 104.809 3.19531C104.621 3.19531 104.469 3.37891 104.352 3.74609C104.234 4.10547 104.141 4.59375 104.07 5.21094C104.008 5.82812 103.961 6.54297 103.93 7.35547C103.906 8.16797 103.895 9.02344 103.895 9.92188V11.2109C104.137 10.4219 104.344 9.71094 104.516 9.07812C104.688 8.44531 104.824 7.85547 104.926 7.30859C105.027 6.76172 105.102 6.23438 105.148 5.72656C105.195 5.21875 105.219 4.69531 105.219 4.15625ZM112.32 17.457C112.281 17.5195 112.223 17.6289 112.145 17.7852C112.074 17.9336 111.98 18.1016 111.863 18.2891C111.754 18.4766 111.621 18.6719 111.465 18.875C111.316 19.0781 111.145 19.2617 110.949 19.4258C110.754 19.5898 110.535 19.7266 110.293 19.8359C110.059 19.9453 109.797 20 109.508 20C109.281 20 109.047 19.9531 108.805 19.8594C108.562 19.7656 108.336 19.5938 108.125 19.3438C107.922 19.0938 107.754 18.7539 107.621 18.3242C107.488 17.8867 107.422 17.3242 107.422 16.6367C107.422 15.9805 107.445 15.3242 107.492 14.668C107.539 14.0039 107.594 13.3984 107.656 12.8516C107.727 12.3047 107.793 11.8477 107.855 11.4805C107.918 11.1133 107.965 10.8906 107.996 10.8125C108.027 10.7422 108.09 10.6797 108.184 10.625C108.277 10.5703 108.383 10.5273 108.5 10.4961C108.625 10.4648 108.75 10.4414 108.875 10.4258C109.008 10.4102 109.121 10.4023 109.215 10.4023C109.34 10.4023 109.438 10.4336 109.508 10.4961C109.586 10.5586 109.625 10.6641 109.625 10.8125C109.625 10.8828 109.609 11.0234 109.578 11.2344C109.555 11.4375 109.523 11.6875 109.484 11.9844C109.445 12.2812 109.402 12.6094 109.355 12.9688C109.316 13.3281 109.277 13.6953 109.238 14.0703C109.199 14.4375 109.164 14.8047 109.133 15.1719C109.109 15.5312 109.098 15.8594 109.098 16.1562C109.098 17.0078 109.188 17.6406 109.367 18.0547C109.555 18.4688 109.859 18.6758 110.281 18.6758C110.641 18.6758 111.004 18.4141 111.371 17.8906C111.746 17.3672 112.07 16.6055 112.344 15.6055C112.383 15.1836 112.418 14.7344 112.449 14.2578C112.488 13.7734 112.523 13.3164 112.555 12.8867C112.586 12.4492 112.613 12.0586 112.637 11.7148C112.668 11.3711 112.695 11.125 112.719 10.9766C112.742 10.8672 112.805 10.7773 112.906 10.707C113.008 10.6289 113.121 10.5703 113.246 10.5312C113.379 10.4844 113.504 10.4531 113.621 10.4375C113.746 10.4141 113.84 10.4023 113.902 10.4023C114.035 10.4023 114.125 10.4336 114.172 10.4961C114.227 10.5508 114.254 10.6406 114.254 10.7656C114.254 10.875 114.242 11.0859 114.219 11.3984C114.203 11.7031 114.18 12.0625 114.148 12.4766C114.125 12.8828 114.098 13.3203 114.066 13.7891C114.035 14.2578 114.004 14.7109 113.973 15.1484C113.949 15.5781 113.926 15.9688 113.902 16.3203C113.887 16.6719 113.879 16.9375 113.879 17.1172C113.879 17.6484 113.906 18.0664 113.961 18.3711C114.023 18.6758 114.156 18.8281 114.359 18.8281C114.508 18.8281 114.668 18.7344 114.84 18.5469C115.02 18.3516 115.211 18.082 115.414 17.7383C115.625 17.3945 115.852 16.9883 116.094 16.5195C116.336 16.043 116.598 15.5234 116.879 14.9609L116.996 14.7148L117.477 15.0781L117.359 15.3242C116.984 16.0664 116.652 16.7305 116.363 17.3164C116.082 17.8945 115.812 18.3828 115.555 18.7812C115.297 19.1797 115.035 19.4844 114.77 19.6953C114.504 19.8984 114.207 20 113.879 20C113.574 20 113.32 19.9414 113.117 19.8242C112.922 19.707 112.766 19.5391 112.648 19.3203C112.531 19.1016 112.445 18.8359 112.391 18.5234C112.344 18.2109 112.32 17.8555 112.32 17.457ZM117.969 18.9219C117.969 18.7734 117.996 18.6328 118.051 18.5C118.105 18.3672 118.18 18.2539 118.273 18.1602C118.375 18.0586 118.492 17.9805 118.625 17.9258C118.758 17.8711 118.898 17.8438 119.047 17.8438C119.195 17.8438 119.336 17.8711 119.469 17.9258C119.602 17.9805 119.715 18.0586 119.809 18.1602C119.91 18.2539 119.988 18.3672 120.043 18.5C120.098 18.6328 120.125 18.7734 120.125 18.9219C120.125 19.0703 120.098 19.2109 120.043 19.3438C119.988 19.4766 119.91 19.5938 119.809 19.6953C119.715 19.7891 119.602 19.8633 119.469 19.918C119.336 19.9727 119.195 20 119.047 20C118.898 20 118.758 19.9727 118.625 19.918C118.492 19.8633 118.375 19.7891 118.273 19.6953C118.18 19.5938 118.105 19.4766 118.051 19.3438C117.996 19.2109 117.969 19.0703 117.969 18.9219ZM122.539 18.9219C122.539 18.7734 122.566 18.6328 122.621 18.5C122.676 18.3672 122.75 18.2539 122.844 18.1602C122.945 18.0586 123.062 17.9805 123.195 17.9258C123.328 17.8711 123.469 17.8438 123.617 17.8438C123.766 17.8438 123.906 17.8711 124.039 17.9258C124.172 17.9805 124.285 18.0586 124.379 18.1602C124.48 18.2539 124.559 18.3672 124.613 18.5C124.668 18.6328 124.695 18.7734 124.695 18.9219C124.695 19.0703 124.668 19.2109 124.613 19.3438C124.559 19.4766 124.48 19.5938 124.379 19.6953C124.285 19.7891 124.172 19.8633 124.039 19.918C123.906 19.9727 123.766 20 123.617 20C123.469 20 123.328 19.9727 123.195 19.918C123.062 19.8633 122.945 19.7891 122.844 19.6953C122.75 19.5938 122.676 19.4766 122.621 19.3438C122.566 19.2109 122.539 19.0703 122.539 18.9219ZM127.109 18.9219C127.109 18.7734 127.137 18.6328 127.191 18.5C127.246 18.3672 127.32 18.2539 127.414 18.1602C127.516 18.0586 127.633 17.9805 127.766 17.9258C127.898 17.8711 128.039 17.8438 128.188 17.8438C128.336 17.8438 128.477 17.8711 128.609 17.9258C128.742 17.9805 128.855 18.0586 128.949 18.1602C129.051 18.2539 129.129 18.3672 129.184 18.5C129.238 18.6328 129.266 18.7734 129.266 18.9219C129.266 19.0703 129.238 19.2109 129.184 19.3438C129.129 19.4766 129.051 19.5938 128.949 19.6953C128.855 19.7891 128.742 19.8633 128.609 19.918C128.477 19.9727 128.336 20 128.188 20C128.039 20 127.898 19.9727 127.766 19.918C127.633 19.8633 127.516 19.7891 127.414 19.6953C127.32 19.5938 127.246 19.4766 127.191 19.3438C127.137 19.2109 127.109 19.0703 127.109 18.9219Z" fill="#080638"/>
</g>
<defs>
<filter id="filter0_d" x="0.871094" y="0.324219" width="132.395" height="33.6758" filterUnits="userSpaceOnUse" color-interpolation-filters="sRGB">
<feFlood flood-opacity="0" result="BackgroundImageFix"/>
<feColorMatrix in="SourceAlpha" type="matrix" values="0 0 0 0 0 0 0 0 0 0 0 0 0 0 0 0 0 0 127 0"/>
<feOffset dy="4"/>
<feGaussianBlur stdDeviation="2"/>
<feColorMatrix type="matrix" values="0 0 0 0 0 0 0 0 0 0 0 0 0 0 0 0 0 0 0.25 0"/>
<feBlend mode="normal" in2="BackgroundImageFix" result="effect1_dropShadow"/>
<feBlend mode="normal" in="SourceGraphic" in2="effect1_dropShadow" result="shape"/>
</filter>
</defs>
</svg>
